<svg width="85" height="27" viewBox="0 0 85 27" fill="none" xmlns="http://www.w3.org/2000/svg">
<path d="M31.4261 10.794V9.27273H38.5938V10.794H35.9219V18H34.098V10.794H31.4261ZM40.8757 14.2159V18H39.0604V11.4545H40.7905V12.6094H40.8672C41.0121 12.2287 41.255 11.9276 41.5959 11.706C41.9368 11.4815 42.3501 11.3693 42.8359 11.3693C43.2905 11.3693 43.6868 11.4688 44.0249 11.6676C44.3629 11.8665 44.6257 12.1506 44.8132 12.5199C45.0007 12.8864 45.0945 13.3239 45.0945 13.8324V18H43.2791V14.1562C43.282 13.7557 43.1797 13.4432 42.9723 13.2188C42.7649 12.9915 42.4794 12.8778 42.1158 12.8778C41.8714 12.8778 41.6555 12.9304 41.468 13.0355C41.2834 13.1406 41.1385 13.294 41.0334 13.4957C40.9311 13.6946 40.8786 13.9347 40.8757 14.2159ZM60.625 15.2131V11.4545H62.4403V18H60.6974V16.8111H60.6293C60.4815 17.1946 60.2358 17.5028 59.892 17.7358C59.5511 17.9687 59.1349 18.0852 58.6435 18.0852C58.206 18.0852 57.821 17.9858 57.4886 17.7869C57.1563 17.5881 56.8963 17.3054 56.7088 16.9389C56.5241 16.5724 56.4304 16.1335 56.4276 15.6222V11.4545H58.2429V15.2983C58.2457 15.6847 58.3494 15.9901 58.554 16.2145C58.7585 16.4389 59.0327 16.5511 59.3764 16.5511C59.5952 16.5511 59.7997 16.5014 59.9901 16.402C60.1804 16.2997 60.3338 16.1491 60.4503 15.9503C60.5696 15.7514 60.6278 15.5057 60.625 15.2131ZM67.3739 11.4545V12.8182H63.4322V11.4545H67.3739ZM64.3271 9.88636H66.1424V15.9886C66.1424 16.1562 66.168 16.2869 66.2191 16.3807C66.2702 16.4716 66.3413 16.5355 66.4322 16.5724C66.5259 16.6094 66.6339 16.6278 66.756 16.6278C66.8413 16.6278 66.9265 16.6207 67.0117 16.6065C67.0969 16.5895 67.1623 16.5767 67.2077 16.5682L67.4933 17.919C67.4023 17.9474 67.2745 17.9801 67.1097 18.017C66.945 18.0568 66.7447 18.081 66.5089 18.0895C66.0714 18.1065 65.6879 18.0483 65.3583 17.9148C65.0316 17.7812 64.7773 17.5739 64.5955 17.2926C64.4137 17.0114 64.3242 16.6562 64.3271 16.2273V9.88636ZM71.4435 18.1278C70.7816 18.1278 70.2092 17.9872 69.7262 17.706C69.2461 17.4219 68.8754 17.027 68.614 16.5213C68.3526 16.0128 68.2219 15.4233 68.2219 14.7528C68.2219 14.0767 68.3526 13.4858 68.614 12.9801C68.8754 12.4716 69.2461 12.0767 69.7262 11.7955C70.2092 11.5114 70.7816 11.3693 71.4435 11.3693C72.1055 11.3693 72.6765 11.5114 73.1566 11.7955C73.6396 12.0767 74.0117 12.4716 74.2731 12.9801C74.5344 13.4858 74.6651 14.0767 74.6651 14.7528C74.6651 15.4233 74.5344 16.0128 74.2731 16.5213C74.0117 17.027 73.6396 17.4219 73.1566 17.706C72.6765 17.9872 72.1055 18.1278 71.4435 18.1278ZM71.4521 16.7216C71.7532 16.7216 72.0046 16.6364 72.2063 16.4659C72.408 16.2926 72.56 16.0568 72.6623 15.7585C72.7674 15.4602 72.82 15.1207 72.82 14.7401C72.82 14.3594 72.7674 14.0199 72.6623 13.7216C72.56 13.4233 72.408 13.1875 72.2063 13.0142C72.0046 12.8409 71.7532 12.7543 71.4521 12.7543C71.1481 12.7543 70.8924 12.8409 70.685 13.0142C70.4805 13.1875 70.3256 13.4233 70.2205 13.7216C70.1183 14.0199 70.0671 14.3594 70.0671 14.7401C70.0671 15.1207 70.1183 15.4602 70.2205 15.7585C70.3256 16.0568 70.4805 16.2926 70.685 16.4659C70.8924 16.6364 71.1481 16.7216 71.4521 16.7216ZM75.8455 18V11.4545H77.6055V12.5966H77.6737C77.793 12.1903 77.9933 11.8835 78.2745 11.6761C78.5558 11.4659 78.8796 11.3608 79.2461 11.3608C79.337 11.3608 79.435 11.3665 79.5401 11.3778C79.6452 11.3892 79.7376 11.4048 79.8171 11.4247V13.0355C79.7319 13.0099 79.614 12.9872 79.4634 12.9673C79.3129 12.9474 79.1751 12.9375 79.0501 12.9375C78.783 12.9375 78.5444 12.9957 78.3342 13.1122C78.1268 13.2259 77.962 13.3849 77.8398 13.5895C77.7205 13.794 77.6609 14.0298 77.6609 14.2969V18H75.8455Z" fill="white"/>
<path d="M49.0043 10.794V9.27273H56.1719V10.794H53.5V18H51.6761V10.794H49.0043Z" fill="#0ED1A7"/>
<path d="M15.1667 12.375H8.66666M10.8333 16.875H8.66666M17.3333 7.875H8.66666M21.6667 7.65V19.35C21.6667 21.2402 21.6667 22.1852 21.3124 22.9072C21.0008 23.5423 20.5037 24.0586 19.8922 24.3821C19.1969 24.75 18.2869 24.75 16.4667 24.75H9.53333C7.71316 24.75 6.80307 24.75 6.10786 24.3821C5.49633 24.0586 4.99915 23.5423 4.68756 22.9072C4.33333 22.1852 4.33333 21.2402 4.33333 19.35V7.65C4.33333 5.75982 4.33333 4.81473 4.68756 4.09278C4.99915 3.45773 5.49633 2.94143 6.10786 2.61785C6.80307 2.25 7.71316 2.25 9.53333 2.25H16.4667C18.2869 2.25 19.1969 2.25 19.8922 2.61785C20.5037 2.94143 21.0008 3.45773 21.3124 4.09278C21.6667 4.81473 21.6667 5.75982 21.6667 7.65Z" stroke="white" stroke-width="2" stroke-linecap="round" stroke-linejoin="round"/>
</svg>
